<mxfile host="app.diagrams.net" modified="2024-04-05T23:08:13.132Z" agent="Mozilla/5.0 (Windows NT 10.0; Win64; x64) AppleWebKit/537.36 (KHTML, like Gecko) Chrome/123.0.0.0 Safari/537.36" etag="za-YzTRItrSamxMKXJSO" version="24.2.2" type="device">
  <diagram name="Page-1" id="9qVC2dCLjhwOdwiq_M-8">
    <mxGraphModel dx="3970" dy="2356" grid="1" gridSize="10" guides="1" tooltips="1" connect="1" arrows="1" fold="1" page="1" pageScale="1" pageWidth="850" pageHeight="1100" math="0" shadow="0">
      <root>
        <mxCell id="0" />
        <mxCell id="1" parent="0" />
        <mxCell id="nEDltva0C851ar5pDOPl-90" value="" style="whiteSpace=wrap;html=1;sketch=0;strokeColor=default;align=center;verticalAlign=top;spacingTop=-6;fontFamily=Helvetica;fontSize=12;" vertex="1" parent="1">
          <mxGeometry x="-180" y="-60" width="1790" height="1000" as="geometry" />
        </mxCell>
        <mxCell id="nEDltva0C851ar5pDOPl-82" value="" style="ellipse;shape=cloud;whiteSpace=wrap;html=1;align=center;sketch=0;verticalAlign=top;spacingTop=-6;fontFamily=Helvetica;fontSize=12;" vertex="1" parent="1">
          <mxGeometry x="191" y="-10" width="1270" height="560" as="geometry" />
        </mxCell>
        <mxCell id="nEDltva0C851ar5pDOPl-17" value="" style="rounded=0;whiteSpace=wrap;html=1;" vertex="1" parent="1">
          <mxGeometry x="3.46" y="40" width="236.54" height="230" as="geometry" />
        </mxCell>
        <mxCell id="nEDltva0C851ar5pDOPl-7" value="" style="sketch=0;outlineConnect=0;fontColor=#232F3E;gradientColor=none;fillColor=#232F3D;strokeColor=none;dashed=0;verticalLabelPosition=bottom;verticalAlign=top;align=center;html=1;fontSize=12;fontStyle=0;aspect=fixed;pointerEvents=1;shape=mxgraph.aws4.mobile_client;" vertex="1" parent="1">
          <mxGeometry x="150" y="70" width="41" height="78" as="geometry" />
        </mxCell>
        <mxCell id="nEDltva0C851ar5pDOPl-8" value="desktop" style="sketch=0;outlineConnect=0;gradientColor=none;fontColor=#545B64;strokeColor=none;fillColor=#879196;dashed=0;verticalLabelPosition=bottom;verticalAlign=top;align=center;html=1;fontSize=12;fontStyle=0;aspect=fixed;shape=mxgraph.aws4.illustration_desktop;pointerEvents=1" vertex="1" parent="1">
          <mxGeometry x="40" y="70" width="100" height="91" as="geometry" />
        </mxCell>
        <mxCell id="nEDltva0C851ar5pDOPl-9" value="" style="sketch=0;pointerEvents=1;shadow=0;dashed=0;html=1;strokeColor=none;fillColor=#505050;labelPosition=center;verticalLabelPosition=bottom;verticalAlign=top;outlineConnect=0;align=center;shape=mxgraph.office.devices.tablet_ipad;" vertex="1" parent="1">
          <mxGeometry x="80" y="200" width="39" height="52" as="geometry" />
        </mxCell>
        <mxCell id="nEDltva0C851ar5pDOPl-10" value="" style="image;aspect=fixed;html=1;points=[];align=center;fontSize=12;image=img/lib/azure2/other/Azure_Monitor_Dashboard.svg;" vertex="1" parent="1">
          <mxGeometry x="50" y="77.4" width="68" height="63.2" as="geometry" />
        </mxCell>
        <mxCell id="nEDltva0C851ar5pDOPl-12" value="" style="image;aspect=fixed;html=1;points=[];align=center;fontSize=12;image=img/lib/azure2/other/Azure_Monitor_Dashboard.svg;" vertex="1" parent="1">
          <mxGeometry x="155.92000000000002" y="90" width="35.08" height="32.6" as="geometry" />
        </mxCell>
        <mxCell id="nEDltva0C851ar5pDOPl-13" value="" style="image;aspect=fixed;html=1;points=[];align=center;fontSize=12;image=img/lib/azure2/other/Azure_Monitor_Dashboard.svg;" vertex="1" parent="1">
          <mxGeometry x="83.92000000000002" y="209.7" width="35.08" height="32.6" as="geometry" />
        </mxCell>
        <mxCell id="nEDltva0C851ar5pDOPl-73" style="edgeStyle=orthogonalEdgeStyle;rounded=0;orthogonalLoop=1;jettySize=auto;html=1;fontFamily=Helvetica;fontSize=12;fontColor=default;" edge="1" parent="1" source="nEDltva0C851ar5pDOPl-14">
          <mxGeometry relative="1" as="geometry">
            <mxPoint y="109" as="targetPoint" />
          </mxGeometry>
        </mxCell>
        <mxCell id="nEDltva0C851ar5pDOPl-14" value="" style="image;aspect=fixed;perimeter=ellipsePerimeter;html=1;align=center;shadow=0;dashed=0;spacingTop=3;image=img/lib/active_directory/user.svg;" vertex="1" parent="1">
          <mxGeometry x="-90" y="68.46" width="30" height="81.08" as="geometry" />
        </mxCell>
        <mxCell id="nEDltva0C851ar5pDOPl-19" value="&lt;font style=&quot;font-size: 14px;&quot;&gt;Event Processing and raising alert&lt;/font&gt;&lt;div&gt;&lt;span style=&quot;background-color: initial;&quot;&gt;&lt;br&gt;&lt;/span&gt;&lt;/div&gt;&lt;div&gt;&lt;div&gt;&lt;ul&gt;&lt;li style=&quot;text-align: left;&quot;&gt;&lt;span style=&quot;background-color: initial;&quot;&gt;&lt;font style=&quot;font-size: 10px;&quot;&gt;Generating Alerts in case of thresholds.&lt;/font&gt;&lt;/span&gt;&lt;/li&gt;&lt;li style=&quot;text-align: justify;&quot;&gt;&lt;font style=&quot;font-size: 10px;&quot;&gt;Email/SMS Alert to customers for power outage&lt;/font&gt;&lt;/li&gt;&lt;li style=&quot;text-align: left;&quot;&gt;&lt;font style=&quot;font-size: 10px;&quot;&gt;Adverse Weather Condition Notification&lt;/font&gt;&lt;/li&gt;&lt;li style=&quot;text-align: left;&quot;&gt;&lt;font style=&quot;font-size: 10px;&quot;&gt;Power Outage Alert&lt;/font&gt;&lt;/li&gt;&lt;/ul&gt;&lt;div&gt;&lt;br&gt;&lt;/div&gt;&lt;/div&gt;&lt;/div&gt;" style="rounded=1;whiteSpace=wrap;html=1;" vertex="1" parent="1">
          <mxGeometry x="570" y="260" width="280" height="140.7" as="geometry" />
        </mxCell>
        <mxCell id="nEDltva0C851ar5pDOPl-21" value="Customer Dashboard" style="text;html=1;align=center;verticalAlign=middle;resizable=0;points=[];autosize=1;strokeColor=none;fillColor=none;" vertex="1" parent="1">
          <mxGeometry x="10" y="278" width="140" height="30" as="geometry" />
        </mxCell>
        <mxCell id="nEDltva0C851ar5pDOPl-27" value="" style="rounded=0;whiteSpace=wrap;html=1;" vertex="1" parent="1">
          <mxGeometry x="500" y="521.5" width="270" height="185" as="geometry" />
        </mxCell>
        <mxCell id="nEDltva0C851ar5pDOPl-25" value="" style="sketch=0;outlineConnect=0;fontColor=#232F3E;gradientColor=none;fillColor=#7AA116;strokeColor=none;dashed=0;verticalLabelPosition=bottom;verticalAlign=top;align=center;html=1;fontSize=12;fontStyle=0;aspect=fixed;pointerEvents=1;shape=mxgraph.aws4.iot_thing_temperature_humidity_sensor;" vertex="1" parent="1">
          <mxGeometry x="510" y="583.5" width="40" height="40" as="geometry" />
        </mxCell>
        <mxCell id="nEDltva0C851ar5pDOPl-24" value="" style="sketch=0;outlineConnect=0;fontColor=#232F3E;gradientColor=none;fillColor=#7AA116;strokeColor=none;dashed=0;verticalLabelPosition=bottom;verticalAlign=top;align=center;html=1;fontSize=12;fontStyle=0;aspect=fixed;pointerEvents=1;shape=mxgraph.aws4.iot_thing_humidity_sensor;" vertex="1" parent="1">
          <mxGeometry x="505" y="640" width="50" height="50" as="geometry" />
        </mxCell>
        <mxCell id="nEDltva0C851ar5pDOPl-29" value="" style="outlineConnect=0;dashed=0;verticalLabelPosition=bottom;verticalAlign=top;align=center;html=1;shape=mxgraph.aws3.camera;fillColor=#5294CF;gradientColor=none;" vertex="1" parent="1">
          <mxGeometry x="510" y="530" width="40" height="39" as="geometry" />
        </mxCell>
        <mxCell id="nEDltva0C851ar5pDOPl-30" value="Under Water Camera&amp;nbsp;" style="text;html=1;align=center;verticalAlign=middle;resizable=0;points=[];autosize=1;strokeColor=none;fillColor=none;" vertex="1" parent="1">
          <mxGeometry x="565" y="530" width="140" height="30" as="geometry" />
        </mxCell>
        <mxCell id="nEDltva0C851ar5pDOPl-31" value="Water Monitoring System" style="text;html=1;align=center;verticalAlign=middle;resizable=0;points=[];autosize=1;strokeColor=none;fillColor=none;" vertex="1" parent="1">
          <mxGeometry x="565" y="588.5" width="160" height="30" as="geometry" />
        </mxCell>
        <mxCell id="nEDltva0C851ar5pDOPl-32" value="Temperature Monitor" style="text;html=1;align=center;verticalAlign=middle;resizable=0;points=[];autosize=1;strokeColor=none;fillColor=none;" vertex="1" parent="1">
          <mxGeometry x="565" y="650" width="130" height="30" as="geometry" />
        </mxCell>
        <mxCell id="nEDltva0C851ar5pDOPl-33" style="edgeStyle=orthogonalEdgeStyle;rounded=0;orthogonalLoop=1;jettySize=auto;html=1;exitX=0.484;exitY=-0.003;exitDx=0;exitDy=0;exitPerimeter=0;" edge="1" parent="1" source="nEDltva0C851ar5pDOPl-27" target="nEDltva0C851ar5pDOPl-19">
          <mxGeometry relative="1" as="geometry">
            <mxPoint x="460" y="270" as="sourcePoint" />
            <mxPoint x="530" y="190" as="targetPoint" />
            <Array as="points">
              <mxPoint x="600" y="521" />
            </Array>
          </mxGeometry>
        </mxCell>
        <mxCell id="nEDltva0C851ar5pDOPl-34" value="Weather API&amp;nbsp;" style="rounded=1;whiteSpace=wrap;html=1;" vertex="1" parent="1">
          <mxGeometry x="400" width="120" height="50" as="geometry" />
        </mxCell>
        <mxCell id="nEDltva0C851ar5pDOPl-38" value="Enclosure" style="text;html=1;align=center;verticalAlign=middle;resizable=0;points=[];autosize=1;strokeColor=none;fillColor=none;" vertex="1" parent="1">
          <mxGeometry x="500" y="717" width="80" height="30" as="geometry" />
        </mxCell>
        <mxCell id="nEDltva0C851ar5pDOPl-44" style="edgeStyle=orthogonalEdgeStyle;rounded=0;orthogonalLoop=1;jettySize=auto;html=1;entryX=1.013;entryY=0.812;entryDx=0;entryDy=0;entryPerimeter=0;exitX=0.143;exitY=0;exitDx=0;exitDy=0;exitPerimeter=0;" edge="1" parent="1" source="nEDltva0C851ar5pDOPl-19" target="nEDltva0C851ar5pDOPl-17">
          <mxGeometry relative="1" as="geometry">
            <mxPoint x="610" y="250" as="sourcePoint" />
            <Array as="points">
              <mxPoint x="610" y="227" />
            </Array>
          </mxGeometry>
        </mxCell>
        <mxCell id="nEDltva0C851ar5pDOPl-45" value="&lt;font style=&quot;font-size: 10px;&quot;&gt;Dash board Notifications&lt;/font&gt;" style="text;html=1;align=center;verticalAlign=middle;resizable=0;points=[];autosize=1;strokeColor=none;fillColor=none;" vertex="1" parent="1">
          <mxGeometry x="400" y="222" width="130" height="30" as="geometry" />
        </mxCell>
        <mxCell id="nEDltva0C851ar5pDOPl-46" value="&lt;font style=&quot;font-size: 11px;&quot;&gt;Power Outage Email/SMS Alert&amp;nbsp;&lt;/font&gt;" style="text;html=1;align=center;verticalAlign=middle;resizable=0;points=[];autosize=1;strokeColor=none;fillColor=none;" vertex="1" parent="1">
          <mxGeometry x="400" y="200" width="180" height="30" as="geometry" />
        </mxCell>
        <mxCell id="nEDltva0C851ar5pDOPl-85" value="" style="edgeStyle=orthogonalEdgeStyle;rounded=0;orthogonalLoop=1;jettySize=auto;html=1;fontFamily=Helvetica;fontSize=12;fontColor=default;" edge="1" parent="1" source="nEDltva0C851ar5pDOPl-61" target="nEDltva0C851ar5pDOPl-70">
          <mxGeometry relative="1" as="geometry">
            <mxPoint x="700.2200000000003" y="266.5" as="targetPoint" />
            <Array as="points">
              <mxPoint x="870" y="267" />
              <mxPoint x="870" y="190" />
            </Array>
          </mxGeometry>
        </mxCell>
        <mxCell id="nEDltva0C851ar5pDOPl-61" value="" style="shape=image;verticalLabelPosition=bottom;labelBackgroundColor=default;verticalAlign=top;aspect=fixed;imageAspect=0;image=data:image/png,iVBORw0KGgoAAAANSUhEUgAAAmQAAAGWCAYAAADWo58zAAAAAXNSR0IArs4c6QAAAARnQU1BAACxjwv8YQUAAAAJcEhZcwAACxIAAAsSAdLdfvwAAFqISURBVHhe7d0JfFTlvTfwPyQheyCsYRMUWUUFkUWtuFKLdWnFqrVWQW6r16rct+oVa217q7b2qu1LbW1tXyuitXXBuhUURAWqZV9k35ckQPZtsk22d37PPE9yMpkkk2Vyzsn8vv08d855zjYhczM//88zZ3rU+QgRERER2aanfiQiIiIimzCQEREREdmMgYyIiIjIZpxDRt3aoUOHpLa2Vq8RERF1rZMnT8rMmTP1WvMYyKhbQyAbOXKkXiMiIupahw8fltGjR+u15nHIkoiIiMhmDGRERERENmvzkKWnuk4OFlfpNaLg0hJ6SlpctF6zD4csiYjITqEOWbY5kBV6a2V7gVevEQXXp9ojI5NipHfv3rrHHgxkRERkJ84hI1t5q6rE62VwJyIiCgUDGREREZHNGMiIiIiIbMZARkRERGQzBjIiIiIim7kukHmra+VAVrms3V8ky7/MV2394WI5nleh9yAiCt11110nU6ZMadQefvhh2bNnj96j4+655x558skn9Vr3s379ernsssv0GhG1h6sCGYLYmxtz5F++MHbQt3yqyKva7swyWbW7UN7ckMNgRkRtdsMNN8jmzZtVe/XVV6WkpERuu+02FTQiVXFxsQpZLf0bZGZmqvCKwIn9iaj9XHMfMlTEEMICNTz7hh/j4rF9ZPSgeL1GdkgoL5CRidEyYMAA3WOP9t6HLKrot3qJ7FAXPUxqE2/Qa+GFCtn06dPl0Ucf1T1+CBkZGRny3nvv6Z72w7mGDh3a5BpOhrCFf5vnn39e/fsEg6of9ps2bZo899xzKtASUWPd6j5kuzJLZf/JMqmtrVOtpr7V+tb9raGvTj7bUyBHc1kpI3KriooK+eKLL/SaPVA1Q9gwQ5eoFFmHNxcvXqz6Af0IJKiqBdseCNvMfmioMsHbb7+t1nFdA9c1fQhACHfmOrgunh+ON+cKHBq1bsNx5tx4RJ/1uZjteB44N+B62BYMAiYC2/jx43UPEbWX4wMZ5oxtOlJiCWINIcwazgLD2uf7CvQZiIjazoQMDMUh9CCYmKHNX/3qVyqAWYfzEGLuu+8+tR1BJXC7gQCEbdgH+6ICZ8IWzp+SkiIrV67Ue4t8/PHHqkKFChvgnOY6w4YNUyEKx5jnhedhQqSZC4drYDsEBjac/9NPP1X74GfF8XgepjKIwGWOJaLwcXwg23uyTMorayxBrCF0NQ1iDWGtqKxaDmc3HeIkIgqFdU4UQgsC2ty5c9X6lVdeqdY3bNig1uGOO+6oH9pDoMF2HBcIgQfnwT6AoIV19AP6zXF4Dlg2+wKubb0OIKABtuF8CGHm2Pvvv78+zOE6CHTWnw3BEIEO+8yaNas+zBFR13J8IMvMr1ABK2gIqwkMYnpd92f4jiUiag8TTBCssIxmhvbQTOgxEGqsAtcNVMOSk5P1mp+pxmEbQpW5nglm6DOs5zXnCXYtHA/WIUszNIoPLRjBzkdEXc/xgazci+pYQwirD131IcwSxPR207KLKvVZiIjaBkOLCEIILKgeoSqFoTtrs07St4YzwAcCggUl9FkDESA8mesgnJnqWmB1rC0wnAlmyNHaTMWMiJzD8YHMl6ssgQuVsqYhzBrEGu3Xtg+QEhGpoUPMywITuBDMMNTX0kR969wt8+nDYGEKQ5s4jxmixH5Yt+6LZcwjwzXbG8hMiMR8NVyjrUy1rD3HElHbOT+QtTWEWfbrn9xLn4WIqHkIR2ZYDwEGQQaT2k2FC+uYp/Xyyy/X74dPIVqrYtjHfCIRlS2EuWCVKMzjwrkQ2sx5zPkNBEBU0dDfkWqWmR+Ga5jn3VKotMJxCIPmeRJReDn+PmSbDxfJp7vyLHcZ03wddU17Lfcl8/1X5rQ0GT04Ua9RV+J9yKgjyqv7y6Z9I+XCCy/UPc6GwGOdqN9RCHrXX3+9CmmddU4iske3uQ/ZxOHJEh3Vw1IN81fC/NUwa4XM30xfUlzPdoex91/8vSy4akazbduaVXpPd/j53Dn1z33f1o26l7Zt2y6nTmXpNSLnQJUOQ4YMY0SRw/GBLDamp0w5PSWkEGYNa1eebW9lJpzKPCUqND4yZ5akH9ire4NDAMs72TAHZP+Who/pRzoEsvnz75LFi5eIx+PRvUT2wZwxDA/iEfcUI6LI4fhABheP76cqZfVBrKYhhJk5ZtawdvG4vjJ2SJI+uu2unf8DWfTROtWGjx6n+q686bv1fZNmXqH67IKA9fEbr6hg1hoTwMZOnqoet679RD2SX2lpqS+QveILZnfLhx+u0L1EbYP5Zp1RzcKcMXwKEuczt8IgosjgikAG44f3lvHDUiSqR8NEf39rCGc9pYdMOiNVpoxK1UeFDwIRKlQYBsQj1gEVKzM8+MWyd+qHC59feF99gMI+WDf7YR8zDNra8djvmXv9N6cELL/0ZPPfj2cC2BU33y4JSckqzHHYsqmsrCx56qmnZcGCB1TljIiIqCs5flL/roxS2XKsRLzVdRIX3VPunt5f1hwslC8zPVLqrVHT+hN7RcnFo/rIyP7xsnhznjpuRP84mTEqRZLiotR6eyHwICShQobKGSB8Ycgw0LxHn5R+g4fWByYEIGsVy5wj2PHY97GX31aBqaXjUbELDGCo2OHagRDesC+e008WL1XL6Lvw6m/IzQsW6r3CY8enH8mr//cZiYmJ0T3ukZiYKIv/7wxJG5ige6iruW1SPxFRc0Kd1O/YQIbvsFyxM19OFja+1g0TU2XykOBvlP/YWSBbTpTpNZFevgB3yTgEtTjd03bBAhkqYghKWEc/whVCFoIR1k2gMtvNOazBCfuXl/g/Mo9KGM4XGOiaOx7LZp8Hf7e4flg10OuLnlLnNgEMy+hD0Pvl0obvygsHN3zKEnPHMFxpdeON35S5c2+X3jV/0T1kh64MZAcPHtRLREQtS0iIlyFD2nYrGlcHskpfGHtvS67keap0T4PByTFy34WD9Fpjj39yQsqravVag8vGp8rYwe2rdpgwZAIZghMCWTAIRgg+gWHJGtgQqDD8iGFDnBOaC2TNHR9qIDPBMRicB+cLF7cFsnPPPUceeeS/JS3N/9ribS/s1ZWBbNu2rXqJiKhl8fHxUlRULNOmTdM9rXP1bS8+2ZUvOcWVaq5YYMssqpSC8mo1VGltmzNLpbSyOugxq3blSW5J03DXHqguoQECmpnoj4Zw1BozhwvnwLyuMedNazY0haK5Y03Iaw4n9/sNGjRInnjiZ7Jo0bP1YYyIiCgYlLAqKsLzPdmOC2R7TpTKoawyX5BqmKwf2NYeKfb/q1jaxnRP0H1N++e2HFV56wymsoTKlZmAj4bKVagQllDBWvzEj+oDXqis+6PaFmxSv/mQAD5daQ2NCJHA21+IfO1rV8nrr78qX/nKRbqHiIjIHo4LZP8+UKg+OdlS23Dc06g6ll9eLQdyyoPua1phaZVsPdr4y3/bC8OSJtgYCD4YbmwN9rEeG3ieUASeIxDCngmHqMBZTb74cvWIfVBFi2SsiBERkVM4ag7ZrgyPrPgyV6+17JbJ/WXqcP+9xj7aVygrfK01sdE9Zf5lw9TNZim8+NVJ1BGcQ0ZEThQXFy/Z2dkyc+ZM3dM6V84hw/dWBhtuDNZ2nCitH7HccKwk6D6BrdxbIwdPNXwKk4iIiMgJHBPIKqtqJasQE/mDh6nAtj2zVPLLqmTnyVLJ9VQF3SdY23So9UoaERERUVdyTCA7llsuNXW1bWrrjpXIthOeoNuaayeLKqQiyK0xiIiIiOzimDlka/fkydq9+XotNPExPYPed6w1N84YLGMGt/+7Lql1nENGHeG0OWRTppyvlyjSlJSUyP79+/QaRbqImEN2NKflW10Ea6WVNUH7W2unCir1VYmIiJpXWlqq/sOOKNwcE8hqatGC37Kis9uJgvDc1I2IiIioPRwTyOp8QSlYNSscDbe/ICIiInIKxySTGWNSfWGp6dcehaPhWkRERERO4agbwx7OKpUjvhZO541KldTEGL1G4cJJ/dQRnNRPTnHq1ClZs2a1jBo1SvdQJAvnpH5HBTLqPhjIqCMYyMgpGMjIKmLu1E9EREQUiRjIiIiIiGzGIUsKCw5ZUke4dcgyPT1Dtm/brtfaLyUlRS64cIbExHC+q904ZElWHLIkInKBzghjUFxcLEcOH9FrRBQJGMiIiDoJBhw6relzUuSIj4+XlJTe0q9ffxkwYKAMGTJUhg0b3qihD9uwD/aNjY3VR5PbtXnIsqKmTtKLK6SwqFD3EDXVq7pChvRO4pAltYtbhyzff+8DveT7GSqqZN32dPUYitEj+8noEf31msiYsWNkrK+RvcI9ZIlAlZiYKAkJiVJZK5Jd3UPSK3tIUY1Isa8FkxIl0tvXhsfWyfBeuOF5rVRUlKvKanV1td6LwsFRt72AqqoqKSxkIKOW+f/IJOg1ezCQuZN7A9n7eklk0ZIv5MCxPJl8yzVy5PPNUph+Um9p3vdvmirnjE1Ty/5ANlYtk33CGcj69OkjSUnJKoh9UtxTdpX30FtCF+s75My4Ork8pVZie/qHu4uLi/RW6myOC2REbsFA5k6uDWTvNgSye594X6bNu1FGXnieVJVXyIr/eU5K8wr01uBGj+gnC77r/5lVIBvHQGa3cAUy/Adrampftfxybk/JqWp7GLNCKPtGqi/Z+eTkZEtlZaVaps7FSf1ERC6AmV/mf5C977B6LM0tEG95uVpuSXxsTKPjqftKt4xHxlmymLe6WrILimXHoQzVtuw7Kqs27VYNy6Yf+2BfY2C0XvDZmRXaMDk5CwMZEVEYXDrtdDn6xRb5/PlX5dNn/ixVZRV6S3DxsdFy6fTT9Rp1dx/vzvIFKn8ou7lfrXytT63sOXBUln66SYWvnYczVNt3/JQKX2hYNv3YB/tmHktXlbELk/3VsYz8Mvn3oVy1TO7CIUvq1jhk6U5uHbJ875139ZJfRlZxyJP6+/VJkL694/WaqOHKsePG6TWyS7iGLP+0LkeW7y+Tv9xxjpw9NEX3in8+2YkS+TKvTEoqg8/qT42Lkgl9E2T2sGTd4/fPL7Nk4T/2yzfPSpTvz7D3A1XdFeeQEbUTA5k7dZdA1hEMZM4QzkD2p/V50iOql4zsnyj/ccFguXpiPxncO07vEZrD2WXy0Z4CWbo1R47meqSqukruOL83A1mYMJARtRMDmTu5NZC9+4+GQJaZVSzL1u6X8orQbkMwekRfmX1xw20uEMjGjWcgs1tXBLLoqCjp1bOnxET1VI8ThyRJanyMjEtLkDP69xI1xayH7//63q2P5lfJgaxyKSqvlt2nyqSqtlaqa+vEW1OtwhgDWXhxUj8RkSvgv2/97c9vbZK9GUVyxtxbpXrYCDl4PK/FtnztAV/bbzkHRap9WWWy5XiJvLkpR55ecUKeXXlSfvPxKdWWbs6VbekeOZDd+odEyF0YyIiIOgkGHEzLLyqXyx78nvQZPljd/gKPrcF9y8zxHQllt956qzz00EN6zW/37t0yadIkeemll3SP36JFi0L6r/1rrrlGli5dqtfI7VavXiPz5/9Ho7Zw4SOyfPlyvUfnw/lxXQqOgYyIqJNYAxns//hz9YhPW4ZyY1h80rLhHLqzHaZPny7r16/Xa35mHcHMCv1z5szRaxRpnnrql/Lii/9PtUsumSnLli2XZ5/9td7aMoS3UPel1rV5Dlmht1a2F3j1GlFwIxOjZUSS5cY4NuEcMndy6xyyt99qqCCt3nRM3lm1V1XGQgljcb4wdu+t02ToQP8n58ZPGO9rE9RyWyF0oUr22muvyQR9DlTMTChbs8ZfpcBd3VEde/rpp2XWrFmqrzmokM2bNy/iwpsdc8jqH32tZ88eEtWjh++xpyqa1vrestEwb6xKtfbNIUOlasmSJSqQWb/iDq8dhKzbb79dBbSW4PicnFx54IEf6p6WoUI2e/bsVs/rZJxDRq6TnZvj+3/UHL1GFBlq62rr28VThsujd31Fbr1oqNxzy/mtth/ffbEMHpBYf3wb/1u5EYSwlJQUWblypVpH8MIyApVZBjMEiYoaILAheGFoM9jwZkZGhgp6zW23wlCo2Q/nxHUh8BzWodXHH39c7rrrrvrtZpjVOlSK49FnfgYcb86F47AdcAyui/MFnoOah9fOiBEj6iupqIJZhzXNkKMZfsR+6DdDnc3tb+B94ec/f7x+u3WIFPvivGYbAp+Bbffdd3/9tmPHjqn+wPP94Q9/VP1uxEBGRNRJGoYb/S01JU7OGN4npBbXK6rx8fqc7WUdtjSPqG7hDde82eLRhDcsI7xgn23btqmqGUKVORYQahYsWKC2P/bYY022GwhLCGuo0GHfoUOHqkCGdvfdd0tycrLq/+CDD9Tx1mCHdXMNPDdU7tatW6e3+s89bNgw1Y8wtmfPHnUe7A8IdQbC2YwZM9Q2DsuGbuTIEVJWVqaWjx49pipgGNK88cY5KiRhGyprqHThd4RtqHy1tL+xevVq1Y/tqMK99dbS+tcjwhXOiW0/+cljKoRt2rRJHY/zXH317Prz4jroRzUPX0OFfjwnnMsa8tyEgYyIqJPU1fqCVCc1XyrTZ20fBBG8OSEE4REBDcErMKiZoUoEHby5oooG6Me6NQxhm6mmmXC3YsUKtR4MwhK88MILKkTheghJCHuAPpzHVLsA1zXXgK9+9atqu6mwYRnHYB3LCG84D+D54RpmX/y85ueh0JWWNgSo//zPu9XvGc4/3z9039LoR2v7I1SZ7QhfqMYhdAGClgl26MdQqvVYs2yGPfG6Rh+uCdj/kksukY0b/edzGwYyIqJO0qjC1Y5W2iNZTkSPkFcO9JbHVxTI/Be2yH+9/KW8+q90KSkP7X5mhglaCChoCGiAN0O8kZngYsIP+tDM8B8a1k24AQQcK1S6gsG1EZTMJzhNBcwMJ6LPXAPbWroGzoU+VOfMc0SfCXvWIUsz/GkNZNR2GA5EIAJUmzAMiOFADCdCaWmpegymtf0TEhL1kh+qWwZ+t0uWLKkffjQBLCEhQVXdUBVDP/ZBdcxstw5l4vrWipybMJAREXUS6xyytrSy6jp580iKbPKkybgzhklq335yKK9Gdhwvls/358lvlh2U7/+/LfLe5tY/HGAgjCB8vfXWW+qNzgQv8/iXv/ylfh9AlQnbMLxnbRiaNKzBCTIzM5sNPahM4cMDJpghUJl9A6+BIceWoCKGSh0qYghjeK4YBgVU3wLPZypm1HYYJkTQmTr1fLWMIUUMYZohwZaEsn9ZWeMwh2shpOERw4+ozj333G/V8dYPG+B1imFMtN2796jXtQl32NfaWnueTsVARkTUSYJVvVprVXXR8l7GQDlYHCsbDhdJTolXbp6eJml9YmXqqFSZe8lI+ekN4+TmC4ZLdU2dvL3hhL5a6xCwUAmzBi+zjH4TzgBDg+hraaK+qVIB5mqh4hVsbhb2M+fBNXBNhDlT7cJctbbAcXhuOC+eJ5gAibBnKm/UfmaeFhqGDlEhQ3hCdcoMPQbOzTJBymhtf0BoMxPycS0cj+FHcx4EQZzDBEMwYQ3wvLAdwc3s211uveG6QIavjFi1u0BeWnuqUUPfqSLejoOI7BMscLXWCpLGSFxiksRGR0lcTJQs254r/ZJ6yS++NVa+fl6anD7A9+bjrZG9mR5Zd7BA/vp5uvz9i9ACCIIMWIMXmH4T0gD7oJqFIGWGAK2fjgTsg0n52IZqFapnwapR48ePrz8PzoHroWKGMIb5YyUlJfXXQDMhrzl4nua5mucOuD6GTVv6ZCi1zHyqEcN+5hYWZh4XghWqVGafQAhEGI40Q4Wt7Q8TJoyXZ555Vm3HXC9M7Mcx5ndshjsxr8xUyDCsaa6DhnWERoQxzB+zbkMzgc9tXHMfMm91rS90FbYauk7rFysXj+ktvaJZ/LNTQnmBuheZteRsB96HzJ3ceh+yV195RS+FZmdBgowaf44czC6XLw4USkp8jFw9OU0mn5Ysw1Jj5Hh+pbz2xSk5nlcmVTV1vr+DNepvYXRUD/ngoQskOd7+e/11d931PmTUPhF/HzL8AVr+Zb6c9IUxxEfrf12aF2et7wWJdjSnQj7Ynq+PJCLqOrW+N8e2tE15iVLt+5v20HVjZdnCC+XVe6fI1FF9pLC8Rpb5/ub5/otZzhuZJL19QS3W9x+ZvaKj1Jt1ZVVtm+aTEZHzuSKQrd6HeRVVUlvj/yNW4wtepqkg5vsvx4a+WsktrpTNRxpPPiUiCjfrfyy21iqqe0hORYzcNvN06ZvUSxJjo6R3QoxMGtFb3t+SLRsOFcu/DhTJWUMS5abpg6R/ci+5eFxf6ZMYI9E9e8jqPbn6qkTUHTg+kOV5quRIdlmjIGaqYWgmhDX8V6e/b8PhYqmsrtVnISIKv4a/Q623rPJomTyytyT06tkoqEX5/irP9AUvzCc7lutVFf8+CdHyremDZeF1Z8rTt06QFF9w81S27TYYRORsjg9ke0+UNgliZr0hiFn7Gvbbm9n8vVKIiDqbNViF1mrFW1nZpBWWNsyVLSitkRU7C2TmmGSprKiQISk9ZfbZ/eRUYaXeg4i6A8cHsuxirz9w1Q9LNvwXZrAQZvZBw7FERF2lfk5rCC0pukq2HyuRwycLxOPx1Lf8ohLZcrREn9HvZKFXXlh1XH3i8ZMdWdI7IVqumTRQbyWi7sDxgQx/uIINSdaHMF9QswYxsw/6C0ur9FmIiMIvOjpa/w1qvSVFeSWmZ628va1YjmR7ZMvBHDlwskTWHamQGWckS0yUqDllSXFRUlVTK+sOl8rP3s2Q3646Jav35sug3rH6quRGSbG+X3CYDEnppZfITRwfyPCdbtYQVh/E6tf91TD/H7nG+/WK7qHPQkQUfrhJKm5cmZaWFlKbklYjZ6YlyZfZPeTpTwrkD2vzpaSiRlITo+QrY/rIT+eMkv/51mhJiY9Woex4YbX6e7fnRKmMHcqvBXKzayf0ljH9Oz9UTx4aL9f4zk3u4/j7kH24PUd2ZXjU/VfA/2B5yr7FYD8AfqqLxvbxtb66h7oS70NGHeHW+5C1lae8WpZvz5L1h/Jl48FCiY2JUvdQnDwiRX44e4TExfj/m7mgtFr+uCpdyiqr1X2nEuOi5Re3TFTbKLzCdR8y408bCuTNHR7xVkuH7kOWGl8nt01OlK+NTdJnpnCI6PuQjRqUoG9r0bgSZq2GmXV/X8N+Z6Y1/hJTIiInSYqPlhEDEmRXeol4a2qlsqpGKnxt4+Ei+e3yw1JYVCS5+YXyya4cGZMWL2cPT5LxQ5LkkevH6TOQ231/WqqsnD9cnriqv9wwMUnOTgttuDEhpodMGBQjt5ybIE/N7iOv3jKIYczlXHGn/j+sOCpFZf6PeDd6snqlLrBG5lsd3j9evjuzfV8w+/6Lv5eP32j+jtvzHn1SJs28Qq85U/qBvfLMvXP1WgM875sXLJSEpGTdEx5uqJB9+OEK9V+/c+fernsasEJmr0ipkBkIXD97a4++C39PiUZlpIfIGf2ipaC8VnI9NaoKMtIX3p7+zkQZkhqnj6RwC3eFrCW7s6qkh+910MP3P6txA/kNDXaJ+Dv13zB9sPqqkMbVMH8lzF8NM9Uxf8O+104ZpI/ufso8JSo0PjJnlgpebbFtzSp5fdFTei2y4Q/t4sWvyM033yb/+tfnupeo611+1gD5539fKHOmDVE3fS33Vvtajew6VSmZhVXqZrALrx8jf733fIaxCIIK2PiBMSqAWRt1T64IZPg0EQIWPnVkQpg1nJkghuUYXxi7/ZJh6g9Ye107/wey6KN1qg0f7R8auPKm79b32V0dyzuZqSp4CGah+OXSlep5j508Va3v37JBPZJfVlaW/PjHP5MFCx6QgwcP6V6iroXvpXzo2jHy2U8uliX3TJHn5p0jz809R97+4XR598EZcu15aXpPIuqOXDFkeSCrXLVK3Jm6qkq2Z5SoSftW0b6wdtaQJPHURcvYwQnq60bwcfGOwrAfqlAIZAhqBgLRqteXqFCE4b8rbr5d7WMdKsTQIPZDgEIYmvvjX6h9sQ8qXPu2blT79Rs8VK678x4V9Fo7HmHqpScfVdsNHIdhVCvreRDIcN3nF96nrhn4s4RDwYFdcmzzvyU5ObxDo60pKMiXPn366LXGtm3b7mtf6rUGN974TZl/Q7kkdSDUU8dE2pAlOZedQ5bkPBE7ZImvTXp7c66s3lsoJwoqJa+sRu6YPlh+d9MYeXjWaXL52FT5+sR+8t++5T/fOl4uHdNfvNV1siO91HdcjuzMCM+d+hGSEKhMhcoMIWI40Ap9CFOAIIQAZ5ZNGAPsg2HEwIpXc8e3FYY2F1w1o8vCmNt5PPyGByIi6lqOrZAdza2Qz/YUqEmuVheOSJKrxwaveLy4KUeO5Df+OpExaQly6fhUvdZ2wSpkCDgIT1hHP4ITQhoqVVg3lSmz3ZzDWsnC/uUl/i9A/2LZO+p82IZqWWvHW6tfD/5ucf2wqpV1n0AXXv0NVX0LJzdM6l+8eImaQ2ace+45ct9998iZZ47ipH6bsUJGTsEKGVlFXIUst6RKVu3KV5Nazfww0zZllKrPVAa2gvJqOegLcYH74waKn+zO9+3RORCcTCULQQyVJ4QrMNUsw8zZMo8Ghg5xbGuaO76tzBwyE8IQAK0Vukg3aNAgWbjwIVm06FkVxoiIiLqa4wJZZXWt/GNTtlT4wpiZtG9tpZU1sjurTO/dAEEt2P5oezJLZcOhIr1nx2AuFhqggmUm+qOhWtUahDaEIZwD887GnDetyVBlW3Tk2EiXlJQkc+d+V1588Y/yta99VfcSERF1PccFsrV7CpoNY6ZtTC8VNavf0jale4Lua9r6g0VSXO6/l1lHYegQTIXMNAwThgpBCkOfi5/4UX3AC5V1f1TbAif5BzJzyMztLjAs2tGqW3dw4403qHuQIZgRERHZyVGBDIEJX5MULFBZ244TpZJfVl0/XLnzVLnkeqqC7mttK77MU9fpKAz9mflkBgIOgk5rsI/12MDzhCLwHG2BMPmDX3J+FBERkZM4alL/Z7vzZMsR/0T31nxjYl+ZeYb/C1T/ti1HNh73qOXW/Mflw9UX9VJ48bssqSM4qZ+cgpP6ySqck/odFcj+tOp4yMOKfROi5bFZp0lFda088s+jurd1553eWy4/q59eo3BhIKOOcFogw/308FqiyFNZ6RWvt5KBjJSICGTZRZWyeHWGXgvNfRcPUUOXf92crXtah+rY3bNG6DUKFwYy6ginBTLweEKrwlP3ExUVJfHx8XqNIllEBLKNhwrl4x25ei00M0YkS3qhVzJ9Ya4t7rxsuPo6JgofBjLqCCcGMiKiiLgPWWFp65PyA9sXR4olvaAi6LaWWlZh2wIcUThlnCyRSZe/3GwjIqLuzzGB7GQ7glV7W4Ev/BE5xbDBybLtkztUe+Fp//3QPvjrDfV9dnnpbzvlrodW6DUiIgonxwQyBKWa2touaUey+F2FRK1B5Y6IiLqGYwJZr+ieTSpZ4WojBnByJrkHgtGtd39QP4T50P+s1ltEln6wX675ztvy+K//Xb/dWtUy28027GdgGeeynhtVMcAxOHb95pON+omIKDwcE8gum9hfUhKipbbOF5rC2BDGLhjTV1+VyNmKS7xy94MrJTm5lxq+xFDm+i0nGgUkU8kyQ54IUStX+28Fg21zrhmjtr32x2tUyDLbAMtm+4LvTZFFf96sronroH/6lMFq27xvT9RHEBFRODjqPmSAuWT4UvFwSE3qJamJMXqNwomfsmwfhClUuBCIMLcMgQlVrDXvfltSfKEMEJqwnwlYWMd2AxWvWZeMDBqiUPlC0MI2VMgQvp7+6SVqG5ZnXv83FeoQxLAdgc7Ma+tK/JQlETlRRHzK0hicGidnDEoMS2MYI7fJOOG/9xWCknVYEeHJSElqfAsXVNMMBDfrcGbgvDAT8sC6TEREXctxFTLqHlgha5/AChkqYAhUGDYMBtsR0LC/geNnnDdEZl06QlXEUC177IcXqMAVWCEDbDMQ2iKtQgaffPKJXiIiall0dHT3/+ok6j4YyNonMJChEnbNbUtl/Jh+QYNRS4Fsgu8YLGNIEqHMhDvMFQslkGEodOVnxxqdu6t0dSAjIgoX1w5ZElEDVLWe/smlUuILZmbYEW33/jy9R/MQqtAwBw3HrFh9VIW8UCHEFXsq1bH8lCURUXixQkZhwQoZdQQrZETUXbBCRkREROQSba6QVft2zy0pl6zsLN1D1FRUTbUM6tuHFTJqF1bIiKi7CNukfqipqZHKSn5BN7UsJiZGNTsxkLkTAxkRdRdhDWREbsFA5k4MZETUXXAOGREREZFLMJARERER2YyBjChC4a79uHEsERHZj4GMKELhDvx2fC0SERE1xUBGREREZDN+ypK6Nad9yhLDhPg6o5Wrj6rvqcT3Tf74hxfIE7/+d/3XIeG7JfEF4ICvLMJ3ShrWbeqLwy8dob7/0hxrvqcSWtuO4Up8lRLOab4TE88Ny4BlawUNz8N8hRKed3Jyr/rjOxs/ZUlE3QU/ZUnkUAhIr/3xGjVkiFB2690fqJC17ZM7VFiyBjAEKYQibEOYwheC4xgD4Qn92I5ghGNxfqO17VYZJ0vUI/bFNbEfgiMgiKHhHNiO59vceYiIqO3aXCGrqKmTrPIavUYUXO9ePaWPr9nNiRUyhBlTpTIBCQENEIqwD8Ja4BeBm23YFxWqwHMBwt143zYEp9a2B1bI8FzWvPttvad/X3zBOI7HMipmCHcGvrQcX36O4zsbK2RE1F2ErUKGQHa0tJqNrcV2oqBEysrK9KuGrBBijJSkWDX01xxUpRB8Jl3+sgpYUGKpkFnPBYHnam27FZ6LlXVfVOoCA2Lgud3quuuukylTpjRqDz/8sOzZs0fv0XH33HOPPPnkk3qt+1i8eHGjfzesE1H7cMiSwqK0vExKS0v1GrWHqVqhGoZhQlTNAlmHLyHzhKdRUGpte6hwjBnSNALP7WY33HCDbN68WbVXX33VF3pL5LbbbpP169frPSJPcXGxXHbZZS3+G3z88cfq3wv/bo8++qg899xzEf1vRtQRDGREDoXAgyCEiflgJtRbIbSZCfuYX4bQhGFKo7XtocLQJc5l5o3huZj5Zd3N+PHj5fnnn5fp06d3y6pWqBBKEcpagjCGfy9AqMVyZ1YWiSIJAxmRQyGIYZgQQ5UYsgwG87rufmiF2o6AhPlc1qHF1raHCsdh7hnmneFc67acUCGtO0PAyMzMrA8YqPxYhzetw3PoR3UIVbVQhu8Ch/owRApvv/22Wsd1DVzX9CEgYvjTXAfXxfPD8eZcgSHSug3HmXPjEX3W52K243ng3IDrYVsorM+biNqGgYyoC2HY0VqhwoR5660lEJYwPIlHNEzgxzoaQhEeEbIMDGdiIj768RhY/WppO65rJuSjP3BIFNutHwgwn/ZEw3LmyZJuM48sGFP5QZUIoQfBxAxt/upXv2oyPIcQc99997U6fIcAhG3YB/u+99579WEL509JSZGVK1fqvf3DgqjWDR06VK3jnOY6w4YNUyEKx5jnhedhQqSZC4drYDsEBjac/9NPP1X74GfF8XgeWAdUC82xLTEBFMcSUdsxkBFRm2H4E0Oh7Rn+dAvrcB1CCwLa3Llz1fqVV16p1jds2KDW4Y47fGHZF5wAoQTbcVwgBB6cxwQXBC2sox/Qb47Dc8CyNeTg2tbrAAIaYBvOhxBmjr3//vvrwxyug0Bn/dkQDBHosM+sWbPqw1xbIGC+/PLL8tRTT6lzEVHbuTKQeSpq5EBWuWw95lENy+gjovDA/DEMVZq2R98frT3Dn25hgomZF4VmhvbQTOgxAoNIc8EE1bDk5Mb/bqYah20IVeZ6Jpihz7Ce15wn2LVwPFiHLM3QKOaHGcHOFyr8/KjQIeRhPpkJikTUdq4KZPmlVbL8y3x5c2OO/Gt/kWw77lENy+hb63tkMKNIETj8Gai17W2B85jhSjQMpVqHTrsjDMEhCCGwoHqEsIGhO2tDdcmwhjPIyMgIGpTQZw1EgPBkroNwZqprgdWxtsBwJpghR2szFbOOwjAunjfCWGedkyhSuSaQoQr27pY8OVXU/EftD5wql3e25Eq+p0r3EBG1DYYOUfUBE7gQzFAFMvOkgrHO3cI8LVS7goUpDG3iPGaIEvth3bovljGPDNdsbyAzIRLDibhGW5lqWXPHIizi57WGUiJqP1cEspOFXlm7r1Bq6+r8rbah1dS3Wt96rVR4a+T9bXmSx1BGRCFCODLDeggwCDKY1G4qXFjHPC3MkzL74VOI1qoY9jGfSERYQVAJVjXCPC6cC6HNnMec30AARBUN/R2pPJn5YbiGed4thUorHIcwaJ5nIPOzW8+NZj6dSURt0+avTir01sr2gq69IeTf1mU1GopseMYNT10tWX6SwX1i5brz+us16moJ5QUyMjFaBgwYoHvs4bSvTqLQuO2rkxBCrBP1Owph5/rrr1chrbPOSUT26DZfLr7vZJkUl1U3VMNqUBnzV8OsFbJa1d9QNcvIL5fcElbJiMh9UKXDkCHDGFHkcHwgy8iv0KHLhLDa+hCmgphuZp+G/erkUDa/S5GI3ANzxjDsh0fcU4yIIofjA1lxWVV9wAoMYdYgFrgPWnpehT4LEVH4YL5ZZ1SzMGcMn4LE+cytMIgoMjg+kNXU+ZoOWIEhLFgQM/uYRkREROR0jg9kdTpYqcBVEzyE+eeVWfbTYS05LkqfhYiIiMi5HB/IhvaNVeHKhDBrEDPr/r6mYW1Y3zh9FiIiIiLncvxtL4rKquWFj481ua0F1JkOS79ZjI3pKfd8daTE+R7b6v0Xfy8fv/GKXmtq3qNPyqSZV+g1Z0s/sFf9LNvWrNI9op47foZwcsNtL06dypK0tEF6rTHe9sJeXXnbi6ysU3qJiKhlvXr1ktTUvnotNKHe9sIV9yH7eEeubDxUqNJWfQizCPYTXDy+r8wc30+vtY3TA1mZp0RWvb5Evlj2jtzz1HMyfPQ4vaUx/Az4WQIlJCXLL5eu1Gvh4YZAtnjxElm+fIU88shDMmnSubrXj4HMXl0ZyLZt26qXiIhaFh+foEbi2vKhm25zHzL4yri+0j8pRg9JWocpfc0yfwz/SNhn4vDkdocxuHb+D2TRR+tUM2Hnypu+W99nd3Us72SmClsIZs1BZcyEsbGTp8pPFi9Vzx1BbMx501Q/oTqSJf/1Xw/KggUPqIoZERFRc1DDysnJ0WudyxWBDMOON0wfIkP7xvlDmG7WEOZvdTJ+aLJcPzVNHxk+CESPzJklC66aoR5NRQ1BCH1oqGD9fO4ctfz8wvvqAxT2wbrZD/uYIcXWjsd+z9w7V+0LWH7pyabfJYdjod/goaqKhkdAdSzcw5VutH37l3LLLbepqpnH49G9REREXcPxQ5b4ovB1h4rVl4r3iY+S2Wcmy3s78mR/dqlU1dSqYcyEXlEyakCCXDK6j3ywv0R6RfeQs4YmyuQR/i/H7QgEHoQkVMhQOYPmhgIRdBB8TGBC+LFWscw5gh2PfR97+W1V/WrpeFTsAgNYsDlhCHD7tm6UC6/+hty8YKHu7TrHNn8ha95+Q+Lj43WPPSoqyiU2NviHO1ARQ4UsUGJiorz154slKTFG91BX45AlETlRXFy8ZGdny8yZM3VP67rFHLLNR0tki69ZfWdSPxk3MPgb7KeHSuQTX3gz+iXFyKyJfTt0+4tggQwVMQQlrKPfzDlDMMK6CVRmuzmHNThh//IS/3NFNQvnCwx0zR2PZbPPg79bHHQOmTnGrkBWk3VcJDdTUlNTdY89Tpw4IWlpwSumH364QjWrUaPOkPvuu0emnL5a95AdGMiIyInCGcgcO2T56Z4C2XS42DI/zN82Z5Sqqliwhm3WfXOKvfLWhmzJ83Ted1oiOJmqFYIYhhPNcCWqW1aYu2V9NFC9ClZhC9Tc8aEwIQ1VMjskpyTL2WdPlMmTJ9naxo0bqybsB2vWT1iiKrZw4UPy4osvqG1ERERdyZGBbKMviO3NbByuTNt5qkwKyqub5LHdWeWSV4qvWWq8f4W3Rt7ZlCOV1bW+vToOw4hogAqWmeiPhmpVaxDaEJJwjituvl1NsLcOS7ZVc8eaEIfrWeevYT3YnLNINnfud+X111+Vr33tq7qHiIioazkukGXmV8r6g0Vqgn5zbeep8sZpzNcQ1ILti1buC2XLtubi9J3CfMrSVMhMwxBhqBCQMPS5+Ikf1Qe8UFn3R9gKFrDwHM3zRAA0H0DAhwT2b9mg+iMdKmF///urvkB2uyQlJeleIiKirue4OWRLN2T5QlnLXwreNyFaFl7u/9QgVFTXyk8+TNdrzZt1dj8ZP7Rtb7xmLpZ1DhkETsxHRWruj3/RaFK+md9lnWOGOWDWYzG/C8sIaIFzyJo7HqznsPYHwn6Yo2YdTjVz08LJDfchawnvQ2Yvp80hGzNmrF6iSFNeXibp6a2/v1BkiJhJ/Rm+IPbW+tDumn3PhWlyRj//5P5N6R75+7bWK2Ap8dFy56XD9BqFEwMZdYTTAtmUKefrJYo0uOfUunX/liFDhugeimQRM6l/8+GWhyqtbf3xEnWHfrTPDoV2XEFplezK4D2miIgoNDU1NVJeXq7XiMLHUYFs/8ngE/mDte2ZpVJRVSuZRZWSXlAZdJ9gDdcgIiIichLHBLLjueVBA1RzrbSyRrafKJX1x0qCbm+u7T/BChkRERE5i2MC2bEcfErS+jVIrbd/7s6TL45guDL49ubaMV/4IyIiInIKxwSyk4WhDzuallPiVZWyYNtaaseyy/RViYiIiOznmEBW3o5g1d6Gyf1ERERETuGYQFZbVyc1XdTKvNX6qkRERET2c8x9yD7ZmSOf7uy8u+m35NavDJPxw9p2d3xqG96HjDrCrfchy8vLk/37Dui19kvpnSJjxoyWmJgY3UN2OXXqlKxZs1pGjRqleyiSRcyNYVftyJEjWeG9LcWF4/rJBIaxsGMgo45wayD74P1/6qWOQyAbM3aMXiO7MJCRVcQEMuo+GMioI1wbyN77QC91HMIYA5n9ujKQoSLaq1cviYqKltjYWN0bXGVlpdTUVKvH6mpOw+kqEXOnfiIiN8N/3Vrb9n2n5J+r97XaPll/WHILy5ocT91fdHS09OnTRwYPHiyDBqVJVVI/OR7TWzZ74+Xzynh5x9O4oQ/bsE/PlL6SljZYHZuS4lvvybd0N+Nvj4io0zTEqVfe2yp/emODHOszTFZuOibL1uxrti1dsVN++tzH8uW+k43OQd1bUlKyClQxCcmyvqyX/Ck7Spbk9pQPC3vKF54esqW0h6R7Gzf0YRv2+bNvfxyDY1NSUtS5EhMT9dnJbRjIiIg6iyVLrd+eLtPm3ShnXXuFXPbg93xvunFql5Z8uv5wo3NQ9xUfH68qY/BOgT+AFdeo1TbBMTh2uS+goUKWmtqXHwZxKQYyIqJOUmf5X3v4c1j7jyf3KK5q/u23oKRUsguKZcehjKAN27CPVazldIcLa/USuQkDGRFRGEw/Z5hseOkt2fX+Kvn0mT9LVVmF3tK8y6adrpeou1u+M0u81f6S2DdSa+XCpDrZvu+ovPXpRvlw3Q5ZtWm37DycEbRhG/bBvjv3H1XHXp7iD2GVvnN+ujdHLZO7tPlTlp7qOtlfWCEVFa3/caHIFef1yPDkOH7KktrFrZ+yfO+d9/SS3/ov0yWvMLTvzh09op9qxthxY1Uje4XrU5Z/WpcjX6R75aU7zpXhfeN1r8iOQq98dqJEsjyVcriwTMqqGo9jJsVEycg+CTI0OVYuH5okY1MaPo2596RH5i/ZIVeMipXvz7D3b2935ajbXgDCWFZWll4jCg7zI3r37q3X7MFA5k7uDWTv6qWO8weycXqN7BLOQPan9XnSI6qXfP3sgTJ32iCZenofiY1u28BVSXmVfLa/SP7y75OyI6NIqqqr5I7zezOQhYnjAhmRWzCQuZNbA9m7lkBWXuF7o9xwRK+1rm+fBDXMaSCQjWMgs11XBLLoqCjp1bOnxET1lJF94+W0vnHylTN6S9+EKOnRw/dGjQOwoN+tMwqrZOeJMtlzqkzyy6qkurZOvDXVKowxkIUX70NGROQG+O9b3X77yjr5eHO6FJ8zXf591CPL1x5osf31/e2yfM1+yzn0OSminCislM3HSuQPq0/I/36UKU+vOCHPrjwpv/n4lGpY/tuGHNl63CMlFe34WCY5FgMZEVEnwYCDaZnZxep2F0MnTZDLHvqeJPZL1Xs178CxvPrjO5LIbr31VnnooYf0mt/u3btl0qRJ8tJLL+kev0WLFoX0X/vXXHONLF26VK+R261evUbmz/+PRm3hwkdk+fLleo/Oh/PjuhQcAxkRUSexBjLY//Hn6rE0t0C85aFN7m84h+5oh+nTp8v69ev1mp9ZRzCzQv+cOXP0GkWap576pbz44v9T7ZJLZsqyZcvl2Wd/rbe2DOEt1H2pdQxkRESdxBrIZp4/Qo5+sUU+f/7VkG97cdVFo+qP70iFbNasWVJcXNwofGEZd3O3BjWzz4QJE3QPRbLZs2fLf/7n3eo1EUolKyeHt9foTAxkRESdxBrIvnH5WHlg7gVy/dgE+d51E+WeW85vsf34rotl1PBUyzn0SdsBAQvha+XKlWodwQvL8+bNq18GMwSJihogrGFoEkObwYY3MzIy1HBoc9utMBRq9sM5cV0IPId1aPXxxx+Xu+66q347ggEerUOlOB595mfA8eZcOA7bAcfgujhf4DmoeXjtjBgxoj7MowpmHdY0Qc0MP2I/9Juhzub2NxDifv7zx+u3W4dIsS/Oa7YtWbJEb/Fvu+++++u3HTt2TPUHnu8Pf/ij6ncjBjIiok5SW1fbqA0ekChnDO8TUuuTEtvoWF8k02dtH+uwpXnE0CTecM2bLR5NeMMywgv22bZtmzz99NMqVFkragg1CxYsUNsfe+yxJtsNhCWEtddee03tO3ToUBXI0O6++25JTk5W/R988IE63hrssG6ugeeGat+6dev0Vv+5hw0bpvoRxvbs2aPOg/0Boc5AOJsxY4baxmHZ0I0cOULKysrU8tGjx+SBB36ohjRvvHGOCknYhqFODHHid4RtqK61tL+xevVq1Y/tt99+u7z11tL61yPCFc6JbT/5yWMqhG3atEkdj/NcffXs+vPiOujHkCm+vxP9eE44lzXkuQkDGRFRJ7FWyDrafP9Hn7V9EETw5oQQhEcENASvwKCGYAMIOnhzRRUN0I91axjCNlNNM+FuxYoVaj0YhCV44YUXVIjC9RCSEPYAfTiPqXYBrmuuAV/96lfVdlNhwzKOwTqWEd5wHsDzwzXMvvh5zc9DoSstbQhQGMLE7xnOP99/+5eWhipb2x+hymxH+EI1DqELELRMsEM/bixuPdYsYx8ci9c1+nBNwP6XXHKJbNzoP5/bMJAREXWSulpfmOpAq+3ZSzJrB8l7R5Pk8RUFMv+FLfK/7++XT3a1fa6OCVoIKGgIaIA3Q7yRmeBiwg/60MzwHxrWTbgBBBwrVLqCwbURlMwnOE0FzAwnos9cA9taugbOhT5U58xzRJ8Je9YhSzP8aQ1k1HYYDkQgAlSbMAyI4UAMJ0JpaePv0bRqbf+EhES95IfqloHf7ZIlS+qHH00AS0hIUFU3VMXQj31QHTPbrUOZuL61Iucmbb4xbKG3VrYXePUaUXAjE6NlRFK0XrMPbwzrTm69MezfX/ubXmq7tacSJa7/aTJrYj95cXWmHMkp998L1PcXutb3fwb2jpX/vXWinHNa6N9+gTlVCE0IXxg+RBhDWEEgQhBDqFmzxj/HB0N9CEyoZgWD+VioTFkrTugz4as5CFI4N4Y4ActmeDGQGW40+xoIdnizxvM3FTY84vp4vtaKmoHrIuxhOLMjuvrGsI0efa1nzx4S5Xsh9PQtYxQbrwU03Ay2SrXadt0YFsOBCDYY5rN+xZ3px5AhAhCWTeUKAQghC+EIvwtsy8nJVevWY5vbH8uobJkqGKAPlTT0m+U77rhdhbBg+yMsIvBNmDDeFxpHquthuLKr8Maw5DrZuTn1//VCFCmsc8BCbd66KHnlUH/5V1airD9UJMXlNXLz9MGSmthLha8bpg2R/zN7tNx9xely8FSprN2bp6/WOgQVhDFUivCGCGYZ/YFDg+izzucKZKpUYAJcsLlZJgwBroFrIgiaahfmqrUFjsNzw3nxPAHDlDg3wpqpvFH7mXlaJlChQlZWVqqCkRl6DJybhWqX9e98a/sDQpuZkI9r4XiELnOeqVPPV+fAfqYPj+b2Gnhe2I5hVbNvd7n1BgMZEVEnsc4BC7XlJ4yS2PhEiY2O8p2hh7y9KVuGpsbJE98aI3OmDZVJI/pIalKMnCiolHUH8uUfG07I6j25/gu2AkEGAitIpt+ENMA+qHQhSJkhQFSgrMOJ2AeT8rEN87dQyTLzt6zGjx9ffx5TRUNlDWEM1a2SkpL6a6CZkNccPE/zXM1zB1wfFUBcw5yrpUBJTaEKhaE+DPuZapepSCFYoXpm9gmEQIThSDNU2Nr+gMrWM888q7Zjrhcm9uMY8zs2w52YV2YqdxjWNNdBwzpCI8IY5o9Zt6GZwOc2HLKksEgoL1DDltZSuB04ZOlObh2yfPWVV/RSaA4Ux8mwMZNkV6ZHNh0tUaHsiokD5PIJ/WRw72jJLq6SNzdmy8FTHvFUYEiqViqra9SQ1gf/fYEkx9s/LaC7665DltQ+HLIkInKBWt+bY1vaptxE9Yb7/VmjZPnDF8hz886Rr4zrK57KWvlsT6FUVlXLmIFx0sP3v9gY35t2tO9N2tcQytoz0Z+InIuBjIiok1iHIkNpGWWxcvNXRsq4IcmSGBfte0ySC0b3lfc3Z/sCWYH8a3+xnDU0Ub45ZYAkx0bLWN92VE2ifG3NHgYyou6EgYyIqJOY4aRQ2vHSWJk8srck9MLcsQZRPXvI+KFJEhcTLcfzvPL5gRIZ3i9O7rx0mPzm9ony0LVnqn1OFlXqI4ioO3BdIPNU1Mj6w8Wy/Mt8eXNDjry7JVct78osFW91rd6LiKjr1dXWtq3ViVR5vU2aL7KpW17A4ZwK+XRvoVx4ZrJUVlTIxaOT5ZtTBsqpQgYyou7EVYEMQezNjTmyO7NMThV5xVNZI/ml1Wp5w+EStQ3BjIjIDsEqYc21mJ41sv1YkWTnF4vH46lvhUUlsuVIiT6j3/HcSvnTquPq04l70/Olb2K0XHU2J20TdSeuCWRr9xepIGb4/p7p1jAfo6KqVtYdLJY1vv+aJCLqajHR0cErYUFa/5gKXyirlTc350l6TpGcyM6TE77HjcfKZMrIJOmBOhk+PVddK9U1tfLFIY/85qMM+eWyTNlyrEQGpfTSVyVqbAhfG67kikC25WiJ7D9ZJjW+P07+1vAppYY+/x8vtL2+fXeks1JGRF3rmmuvlUFpaSG3s/rXyuC+SbIjJ0Z++HauPL2qQIoramVgcoxcNiFVFs2dIE/cPEaFsipfKPvyRJXkeapk4+EimTiij74qudG3J/eVwb7fc2c7s3+sXDIqSa+Rmzj+PmQlFTXyt39n6bWGpxrsWasuvQEfD//ORWkS63ukrsf7kFFHuPU+ZG2FeWBr9+bKtmNF8vm+fPX3KikuRqafkSJ3XTm8/u/XoexyefVfmZJdXKn+Jg7rGy+/vv1stY3CK1z3IYOSyhr59dp8+fBAWYfvQxYTVSvfmBAnN56dIkmxfN8Ll4i+Dxm+z62laph/HdtM1czfV+6tkSO+P2JERE6V1ifW1+J8f6vwoaQaqayuleLyKvl0b74sWn5YiktKJL+wWHalF6nbX8wclyqzz+knd195uj4DuVlybJT89MoBsvLO4XLvhX3kwhFxkthLf5ojBAMSe8r04bHyf76SIq/eMlDmnt+HYczFHF8h+8embPWVIVYNz7jhqaulgJ/k3BHJ6g8YdT1WyKgjIqVCZry76aT8/O290iuqp0Sj9URFpIecN6yXHMmrltzSGhmQHKMq/z/71ngZncYhqa4SzgpZc0q9dXK0oFoQzfBp273Z1b6g1lNO6+O/RQre6sYP5Lc02CGiK2TIi4HVMFMxa+hr2Me6Xzbv00NELnD9+YPltXvPlxmjU6WiqlrKq2qk3Fstnx8uk8wir/gymsw6Z6D88T8mM4xFAFTJzhoUIxN8bfzAGPnmxHj56phYGecLYWgMY92T4wOZL1epcBU4JBkYxEwIa7Rf24p/RES2GTskWX5z+znyyY8vlt/NO0cWXj9Gnrxlgjw39xxZ9eOvyPevOJ3fXUnUjTk+kMVEIZQ1BLBWQ5ilDUuN02chInIHhK7zz0iV66YMlssmDFDLRNT9OT6QjRqUoMKVCWG1NU1DmApiqt+yn68N4L1YiIiIyAUcH8hGpyVKTFSP+hDmD2I6hFlaQ59/n6S4njJmcKI+S9u8/+LvZcFVM5pt29as0ns6V/qBvUGf+/ML75Mvlr2j94ps27ZtV42IiMhujg9ksTE95erJA0IKYdawds15g/QZup8yT4kKjY/MmaWCV1vs27pRXl/0lDo+0iGM/dd/PSiPPvpTOXXK3OuOiIio6zk+kMGYwUnydV/AwrCkCVwYrgwMYWgIatdMGSQjBiToo9vu2vk/kEUfrVNt+Ohxqu/Km75b3zdp5hWqzy55JzPl4zdeUcEsFL9culI97wd/t7j+58HxbQ1z3dXnn38h8+ffJYsXL1HfJUhERNTVHH8fMvBU1MiuE6WSkV0mR7I84qms1lv8zE/QNzFGRg5JkQlDk2T0oHh/Zwc9c+9cFVwQyBDUDASaVa8vUaEoISlZrrj5drUP9sUxcPOChWo/BKixk6fK3B//Qu2LfVChQrUK+g0eKtfdeY8Keq0dv3/LBnnpyUfVdgPHzXv0Sb3mZz0PAhmuC3i+j99xg3rEz4PnHA41WcdFcjMlNdXeCcknTpyQtLQ0vdbYhx+uUM1q0KBBMm/e7fL1CxhW7RRp9yEj57LjPmTkXOG8D5mjAxm+v23LUY/symz4XsofXTZYdp30yJe+vuMFFeqrRQYl95IrxvSRshqR17blq/36JsXIjFEpMrhPxyb2BwtkCEnBhvwQihCuTBBCCLJWscw5gh2PfR97+W0Vvlo6HhWujgQyCPYzdbZjm7+QNW+/IfHxnROM26uiolxiY4N/2hbDlFlZTYcqEcp+98RESRvY/iordQwDGTkFAxlZRWQgw/e1rdiRr75I1+rqcb3lwtOC3xjx7V0FsiWzTK/5XTq+j4xJa/8ba7Dwgrlb1goTwhVCFoIR1k0QMtvNOazBCfuXlxSrZUyyx/kCA11zx1vDlnUY0sq6T2Ag+/ncOSr4WX+mzuaGO/VjiHLx4lf0mkhiYqKqjt144w28U7/NGMjIKRjIyCriAhm+z+2vn59SFbJAqfHR8tAlg/Vagwrfvj//OFOvNXbZhFQZ285PXJowZMILghMCWTAIRhhmDAxL1sCGQIVPOmK4EueE5gJZc8d3JJBZ+/FcL7z6G2q5s7ktkN144zdl7tzbJSnJH/YZyOzltECWnJysXksUeSorveL1VjKQkRJxX5307qZsqfDWNJqsb1peaZWcKPaq7/Kytl2n8CXkTfdHW7Uzv9O+aBzBxoQbBDQz0d9Mmm8NKlMIYzgH5p2NOW9ao2HJtmrLsbhdBz5hCQh+CHiR7txzz5G///1Vuffee+rDGFGgkpISSUhIYIvAlpraR4YMGaJfCUTh47hAtv5QkWT5Ahe+9qi5tvZIsX8mv6Wt8fUF29e0FTvzVOWtM5ggg8qV9R5fqD6FylTaFj/xo0bDiaGw7o9qW+CcskC4Dp4f9jPPER8iaOt1uxtUxBYtelbS0rrvLVKo8yCws0Vms3suLEUGRwWyyqpa2eoLVsGqXNa242SZlPvClamOZfoCXEZhZdB9TUPFbd2BQnWdjsJQX+DcK3wKElWn1mAf67HtmcMVeI62wBDlTxYvZXWMiIjIQRw1h2yLL4yt3uP/lGRrbpncX6YO9w8xvbszX9Yc9k+Qb809s05TN5ul8HLDHLKWcA6ZvZw2h4yICCJmDtmO9BJ1Y9dQ2mcHi+pHLNcdC/24nRm88ScRERE5i2MCWVFZtWQVVoj/C8Nbb+kFFZJfViUbjpdIaWV10H2CtR3HivQViYiIiJzBMYHseG6ZLzAFn//VXPvsQJFsz/QE3dZcO1VY6Qt/je9tRkRERGQnxwSywtKqoAGqpfbFkSLZltG2QIaW5QtlRERERE7hmEB2JKcs6O0qWmoeb03Q/tbaSQYyIiIichDHfMpy8WfpcswXyrrC2CFJcstFrd+igtrP7Z+y7OndINlZ2XrNXY4ey5FP1+6Webddonvcp6wyWjKyU7rkU5bwySef6CUiopZFR0d3769OeumTY3K0iwLZpJG95ZvTeeflcHJ7IIOdO3fqJXc5cOCgLFv2oSxYcK/ucSfcjJNfV0NEbue6QLYno0T+ujZdr4VPXExP+cHsUZKaGKN7KBy6QyBzq23btstLLy1R30JARET2cuWXixeUVkmBJzznNoakxklcryi9RuHCQGYfBjIiIudwZSCj7oOBzD4MZEREzuHKO/UTERERRSIGMiIiIiKbMZARERER2YyBjIiIiMhmDGRERERENmvzpyyrfbvnlpRLVnaW7iFqKqqmWgb17cNPWdqAn7IkInKOsN32AmpqaqSykt8HSS2LiYlRzU4MZEREZKewBjIit2AgIyIiOzGQEflkZmZKWVnXfEeqU+zdu1/effd9efjhB3QPERHZpbCwUKZOnarXmsdARtTNbN26Tf7yl5flued+o3uIiMjp+ClLIiIiIpsxkBERERHZjIGMiIiIyGYMZEREREQ2YyAjIiIishk/ZUnUDaxd+y95442latnj8cipU1ly5pmj1Dr88pePS1JSkl4jIiKnYSAj6gYQwm688dtSWlqqexp861tz5P77f6DXiIjIiThkSdQNoPq1YEHT0JWYmCh33nmHXiMiIqdiICPqJmbP/ppMmnSuXvO78865HKokInIBBjKibsRaDcMcsptumqPXiIjIyRjIiLqRyZMnyezZV6llzhsjInIPTup3geLiYikqKtJrRC3LycmVpUv/IXff/T3dQ9S6gQMHSmxsrF4joq7GQOYC6enpMnz4cL1GRNT5+HeGyF4csiQiIiKyGQMZERERkc0YyIiIiIhsxkBGREREZDMGMiIiIiKbMZARERER2YyBjIiIiMhmvA+ZC4Ryf6BDeV7xeGv0GkWacwfH66XgPN5a32ukUq9RpElLjpFBSdF6LTjeh4zIXgxkLhDKH8oVB0rkVEm1XqNIc2n/EjnttNP0WlNZnmr5aH+JXqNIc2ZKjZw1IEZ69+6te5piICOyF4csiboBvJkSNae0tIxfv0bkcAxkRERERDZjICMiIiKyGQMZERERkc0YyIiIiIhsxkBGREREZDMGMiIiIiKb8T5kLuCG+5B9/PKz8uXqD/RaYxff+H2ZevW39Zqz4Hkf271Z5v/qNSnKOSkvPnyr3tLgnEuuka/4foa4xGTd4zyjynfLRRddpNea6sz7kOHfCP9WVmOmXipTZ39bBo0co3s65q1nHpQ+AwbLlXc8oHu6B7teb4OjSmRsqrR4rzreh4zIXqyQUafAG+cP//KpaqdNmKLeVMy6XWGsorREnr/vOjnuewNsC+vPguWsY/vlrz+/q0kIiWTW3+93fvKC+rfGv1Fb/627E77eiKgjGMio26os86g3yY5A8JjzwDPqXBuXvaZ7yQpVsRsffEYF8ZUvP6t7Iw9fb0TUEQxk1CU2Lvub/PrOy1TDMI21ioD1tW/9ST1iu7XKgDe4D/7wP42OzTq6X21DBQF91nObygKGT81wEIa/sK29MHR0tu+Ncv+m1bqHgkGYwL+9+f3gd2h+p+b3ZJjfOX5fwbYHsv6O0fCaAPMasA6Xm0oV+szrwLwGzL6BrxlrkLJuw7HmtcjXGxGFEwMZhR3ewPDmiyoKhmUw3whvqNY3wf0bP5Nr/vNnavvAEWPU/mCqDphzg22DRo6Vj5c0rsLs3/SZ3PPce2of7Pvl6vdVOMA6mOt2RO8BQxo9X2oKvxuoLCtRoQzB5JxLrlX/9tf850/V79QaxHf4QgzmF2I7huoCtxvm9WOG9vzzr06o+Vi9BwxWrye8fgwTZMacf4l6RGAaMWGKOhbXw3HW1wy247lASK9Vvt6IKAwYyCjs8AaGeWQY0gJM/sabjfXNF2/cZkI43txMlQVvuHiDwyPgHHgDtbry9gdUVcG8OZtjO1Ml3xxbFRha8Ps08wfxe8E6JrQbeB2Y1wR+59huDVYGAg/Og30Av2cca6piCF54LZnr4xyoMJlJ8Xg0zwP9gOPrXzO+4xHwIJTXKl9vRBQODGQUdnjDsg7zYDgJKso86hFi9ZsnmDdSAxULM7SF6kZg5cC6f1xC530yzQpv2CYwUnCYjA6ocOJ3jmZ+52hYtwYN6+8cYpv53SGAB/5eTTUO2xCK8BpAlQvrCE9jzr9UbYfYhCS91PBaCXyNGaG8Vvl6I6JwYCCjsEMlwQxNWZupeLREDS+piod/6AvDVl0Nb/Koxljf5KkpTEI34Qi3rECVKfB3bv39BVaBEEICQxrgfBVljffNOrpP9eO1Bf45V5+p1wqCTHvDTEdeq52FrzeiyMRARmGH4ciNy/8WdH5QawpRHfG98eINEZWxHavf11taZyojOEd7oVqC6hyChhn2osYQHvBvBFfe/kP1iH8v/L7x79ccDEWiIgUI3ggieK0EwrAhzmOGKLEfXk9m+BFwHM6FcyK8t1dHXqt8vRFRRzCQUdjhjQXzdKyfdDOfkmvNNN+xeAPGMX9Z+B0ZNCL0yocJcnizx/GhMvujqTlFvkCASenUAOHI/Bv9660/qWoYJrXj3xywjkoTwo3ZD59CtA43Y6L90mf9rwlMxEf1zFS8rPD6MZPxzXnM+Q0chz58CMRM5m+PjrxW+Xojoo7gnfpdwA136id7deWd+jsDQtXUq29VAaazIER1x7v7dwbeqZ/I+VghIyLXQ8UOw4wIeUREbsRARkSuhqE+DPs1N+RJROQGHLJ0AQ5ZUmvcNmRJXYtDlkTOxwoZERERkc0YyIiIiIhsxkBGREREZDMGMiIiIiKbcVK/C4Q62Xbnzp1SVFSk1yjStDSpH/DawGuEIhP+hnBSP5FzMZC5AP9QElG48e8Mkb04ZElERERkMwYyIiIiIptxyNIFQhlKOFFcJeVV/FVGqlH9euml4Mqran2vEd44OFKlJkRJ3/govRYchyyJ7MVA5gKh/KE8lOcVj7dGr1Gkico7JBMnTtRrTXm8tb7XSKVeo0gTXVkkAxJ6ysCBA3VPUwxkRPbikCVRN8BP11JLvF6vVFRU6DUiciIGMiIiIiKbMZARERER2YyBjIiIiMhmDGRERERENmMgIyIiIrIZAxm53u9/8ajcMfsCOXpgr+4hauyfb74i//uj+/UaEZHzMJCRq5V6SmTD2k8kMSlZPRJZ7dq6UX56/zx54y/P6x4iImdiICNX+2z5OzIgbah8/abvqmUiq5d++ysZeeY4+fq3vqt7iIiciYGMXA1VsWkXXy6Xzv5GfbWMyHjmpbdk3v0PS2Jysu4hInImBjJyLcwZQ0Mgw5DlWZOnysa1q/RWIiIi92AgI9dCNWzk6HGqAYIZ+lApIyIichMGMnItzBlDhQyfsETDfCHTT0RE5CYMZORKphKGOUIvL/93fTNVMiIiIjdhICNXwlwxDFXiE5ZWUy++on5uGRERkVswkJHrmE9TohoWyEzwZ5WMiIjcpEedj14mh0pPT5fhw4frteAO5XnF463RaxRpPIe3yEUXXaTXmvJ4a32vkUq9RpGmtiRH+sWJnHbaabqnqVD+zhBR+LBCRkRERGQzBjIiIiIimzGQEREREdmMgYyIiIjIZgxkRERERDZjICMiIiKyGQMZERERkc0YyIiIiIhsxhvDukCoN2zcuXOnFBUV6TWKNC3dGBbw2sBrhCIT/obwxrBEzsVA5gL8Q0lE4ca/M0T24pAlERERkc0YyIiIiIhsxiFLFwhlKKGgIF+83iq9RpFm0KBBeik4r9fre40U6DWKNImJiZKUlKTXguOQJZG9WCEj6gZWrVqll4iaOnnypOzZs0evEZETMZARERER2YyBjIiIiMhmDGRERERENmMgIyIiIrIZAxkRERGRzRjIiIiIiGzGQEautWjRIrnqqqvq25w5c2TZsmV6K1GDN954QxYuXKjXiIich4GMXG3w4MHy0UcfqTZz5kwV0jwej95KkW7r1q1y7733yosvvqh7iIiciYGMug0EMsBNMIkAAX306NFy00036R4iImdiIKNuAVUxVEEQyvAGTASLFy+WBQsWSHJysu4hInImBjJyNVTDzPwxhLLJkyfrLURERO7BQEauZp1DdvXVV6shqjVr1uitRERE7sBARt0G5glhuHLt2rW6h4iIyB0YyIiIiIhsxkBG3QbuNXXgwAG5+OKLdQ8REZE7MJCRq5lJ/Wivv/66zJ8/v/72F0RERG7Ro85HL5NDpaeny/Dhw/VacAUF+eL1Vuk1ijQ7d+6UK664Qq815fV6fa+RAr1Gkaa4uFiqq6tl/PjxuqepUP7OEFH4sEJGREREZDMGMiIiIiKbMZARERER2YyBjIiIiMhmDGRERERENmMgIyIiIrIZAxkRERGRzXgfMhcI5f5AJSUl6l5DtbW1uociyf79+1u8DxnuQYV71VVUVOoeiiRFRUUSFRXF+5ARORgDmQuE+odyx44dUlpaqtco0syYMUMvBZefn6+CG0WmtLQ0GTlypF5rioGMyF4MZC7AP5REFG78O0NkL84hIyIiIrIZAxkRERGRzThk6QKhDCUcyvOKx1uj1yjSnDs4Xi8F5/HW+l4jnNAfqdKSY2RQUrReC45DlkT2YoWMqBv4/PPP9RJRUydOnJDjx4/rNSJyIgYyIiIiIpsxkBERERHZjIGMiIiIyGYMZEREREQ2YyAjIiIishkDGREREZHNGMjI1XZt3Sj/+6P75Y7ZF9S3f775it5KkazUUyK//8Wj9a+LB+fdqF4vREROxEBGrvXZ8ndUGBuQNlReXv5v1f77F7/lmy4pRw/sVY/Pv7lCvTbOmjxVBTQENSIip2EgI1fKOZUpL/32V3LTnffIvPsf1r2i3nQRyojwWvjBj56UxKRktY7XCsKYCWpERE7CQEau9Omyd9Ub7de/9V3dQ9SynJOZ6tEENCIiJ2EgI1dChWzk6HF6jah1mFuIqhlfN0TkRAxk5EqcB0ShwmsFcw2zT51oNLxNROQkDGTkSiPPHMe5QNQqvEZ+et88tfw/v31JfQCEiMiJGMjIlTD0hMoHPmlJFAyGtVEZu+zq6/lBDyJyPAYyciUEsktnf0N90tJ63zFzKwwifPAjISmFH/wgIldgICPXwnwg3MoAb7zm5p8fvPGqTLv4cr0HRTJUUFElM68N0xDiiYicpkedj14mh0pPT5fhw4frteAO5XnF463RaxRpPIe3yEUXXaTXmvJ4a32vkUq9RpGmtiRH+sWJnHbaabqnqVD+zhBR+LBCRkRERGQzBjIiIiIimzGQEREREdmMgYyIiIjIZgxkRERERDZjICMiIiKyGQMZERERkc14HzIXCOX+QPnlNXIyK0e8Xq/uoUhSlpPe4n3IvDV1cqqwXPLycnUPRZLq8hIZlJrM+5ARORgDmQuE+ocyOztbKioq9BpFmpbebKGyslKysrL0GkWa3r17q9YcBjIiezGQuQD/UBJRuPHvDJG9OIeMiIiIyGaskLlAKP/lWl1dLbW1tXqNIk2vXr30UnD4f/Oqqiq9RpEmKipKtZawQkZkLwYyFwjlD2VBQb54vXzDjWSDBg3SS03hwx4FBQV6jSINwlhcXJwkJSXpnqYYyIjsxSFLom5g586deomoKYRxBC4ici4GMiIiIiKbMZARERER2YyBjIiIiMhmDGRERERENmMgIyIiIrIZAxkRERGRzRjIyJUWLVokV111VaN27733yrJly/QeFOk8Ho88+eST9a+PuXPnytatW/VWIiJnYSAj1xo8eLB89NFHqi1dulRGjx6tgtobb7yh96BIduDAAfWI1wZeI5MnT5YnnnhCBTUiIqdhIKNuAXcgX7BggcyfP19efPFFOXnypN5CkQoB7NFHH62/Oz1eGwhjJqgRETkJAxl1K1dffbV6XLt2rXokMkxIb+nrg4iI7MJARt0K3mwxlEkUCEPZqJphaJuIyGkYyKjbKSkp0UtE/sn9CxcuVBUyDGsTETkRAxl1K3jTxRtwWlqa7qFIhvli+PQt/O53v2P1lIgci4GMuhUMS+FN97zzztM9FKkQzlEZw7zCp556SvcSETkTAxl1C6iE4M0X9yGzfrKOIhdeC8nJyXLTTTfpHiIi52IgI9dCBcR6U1hUxhYvXsxJ26Rg6Nr6GjEN96ojInKaHnU+epkcKj09XYYPH67XgisoyBevt0qvUaTZuXOnXHHFFXqtKa/X63uNFOg1ijTFxcVSXV0t48eP1z1NhfJ3hojChxUyIiIiIpsxkBERERHZjIGMiIiIyGYMZEREREQ2YyAjIiIishkDGREREZHNGMiIiIiIbMb7kLlAKPcHwj2G9u3bJ5WVlbqHIgnuMdbSfcjw/+a5ubnqtUSRp7y8XPr27cv7kBE5GAOZC4T6hzI/P1+qqnhz2Eg1aNAgvRQcbw4b2RITE1v8SjEGMiJ7MZC5AP9QElG48e8Mkb04h4yIiIjIZgxkRERERDZjICMiIiKyGQMZERERkc0YyIiIiIhsxk9ZusDBQwcltlesXiMiCg9+ypLIPgxkRERERDbjkCURERGRzRjIiIiIiGzGQEZERERkMwYyIiIiIpsxkBERERHZSuT/A0qX0fomssCiAAAAAElFTkSuQmCC;" vertex="1" parent="1">
          <mxGeometry x="930" y="140.6" width="379.56" height="251.8" as="geometry" />
        </mxCell>
        <mxCell id="nEDltva0C851ar5pDOPl-70" value="&lt;div style=&quot;text-align: justify;&quot;&gt;&lt;span style=&quot;background-color: initial;&quot;&gt;&lt;br&gt;&lt;/span&gt;&lt;/div&gt;&lt;div style=&quot;text-align: justify;&quot;&gt;&lt;span style=&quot;background-color: initial;&quot;&gt;Data Processing&amp;nbsp;&amp;nbsp;&lt;/span&gt;&lt;/div&gt;&lt;div style=&quot;text-align: justify;&quot;&gt;&lt;span style=&quot;background-color: initial;&quot;&gt;and Analytics&lt;/span&gt;&lt;/div&gt;" style="whiteSpace=wrap;html=1;shape=mxgraph.basic.cloud_rect;sketch=0;align=center;verticalAlign=top;spacingTop=-6;fontFamily=Helvetica;fontSize=12;" vertex="1" parent="1">
          <mxGeometry x="680" y="133.7" width="130" height="76" as="geometry" />
        </mxCell>
        <mxCell id="nEDltva0C851ar5pDOPl-68" value="Cloud&amp;nbsp;" style="text;html=1;align=center;verticalAlign=middle;resizable=0;points=[];autosize=1;strokeColor=none;fillColor=none;fontFamily=Helvetica;fontSize=12;fontColor=default;" vertex="1" parent="1">
          <mxGeometry x="770" y="60" width="60" height="30" as="geometry" />
        </mxCell>
        <mxCell id="nEDltva0C851ar5pDOPl-71" style="edgeStyle=orthogonalEdgeStyle;rounded=0;orthogonalLoop=1;jettySize=auto;html=1;fontFamily=Helvetica;fontSize=12;fontColor=default;" edge="1" parent="1" target="nEDltva0C851ar5pDOPl-19">
          <mxGeometry relative="1" as="geometry">
            <mxPoint x="458.82" y="50" as="sourcePoint" />
            <mxPoint x="458.9399999999999" y="269.9897000000001" as="targetPoint" />
            <Array as="points">
              <mxPoint x="640" y="51" />
            </Array>
          </mxGeometry>
        </mxCell>
        <mxCell id="nEDltva0C851ar5pDOPl-74" style="edgeStyle=orthogonalEdgeStyle;rounded=0;orthogonalLoop=1;jettySize=auto;html=1;entryX=0.008;entryY=0.267;entryDx=0;entryDy=0;entryPerimeter=0;fontFamily=Helvetica;fontSize=12;fontColor=default;" edge="1" parent="1" source="nEDltva0C851ar5pDOPl-17" target="nEDltva0C851ar5pDOPl-70">
          <mxGeometry relative="1" as="geometry" />
        </mxCell>
        <mxCell id="nEDltva0C851ar5pDOPl-80" style="edgeStyle=orthogonalEdgeStyle;rounded=0;orthogonalLoop=1;jettySize=auto;html=1;entryX=0.026;entryY=0.125;entryDx=0;entryDy=0;entryPerimeter=0;fontFamily=Helvetica;fontSize=12;fontColor=default;" edge="1" parent="1" source="nEDltva0C851ar5pDOPl-70" target="nEDltva0C851ar5pDOPl-61">
          <mxGeometry relative="1" as="geometry" />
        </mxCell>
        <mxCell id="nEDltva0C851ar5pDOPl-81" value="Multi tenant DB for multiple customers as per geagraphical locations" style="text;html=1;align=center;verticalAlign=middle;resizable=0;points=[];autosize=1;strokeColor=none;fillColor=none;fontFamily=Helvetica;fontSize=12;fontColor=default;" vertex="1" parent="1">
          <mxGeometry x="910" y="410.7" width="390" height="30" as="geometry" />
        </mxCell>
        <mxCell id="nEDltva0C851ar5pDOPl-86" style="edgeStyle=orthogonalEdgeStyle;rounded=0;orthogonalLoop=1;jettySize=auto;html=1;entryX=1;entryY=0.573;entryDx=0;entryDy=0;entryPerimeter=0;fontFamily=Helvetica;fontSize=12;fontColor=default;" edge="1" parent="1" source="nEDltva0C851ar5pDOPl-70" target="nEDltva0C851ar5pDOPl-17">
          <mxGeometry relative="1" as="geometry" />
        </mxCell>
        <mxCell id="nEDltva0C851ar5pDOPl-89" style="edgeStyle=orthogonalEdgeStyle;rounded=0;orthogonalLoop=1;jettySize=auto;html=1;fontFamily=Helvetica;fontSize=12;fontColor=default;" edge="1" parent="1" source="nEDltva0C851ar5pDOPl-88">
          <mxGeometry relative="1" as="geometry">
            <mxPoint x="520" y="-60" as="targetPoint" />
          </mxGeometry>
        </mxCell>
        <mxCell id="nEDltva0C851ar5pDOPl-88" value="&lt;div&gt;&lt;font style=&quot;font-size: 14px;&quot;&gt;&lt;br&gt;&lt;/font&gt;&lt;/div&gt;&lt;div&gt;&lt;font style=&quot;font-size: 14px;&quot;&gt;&lt;br&gt;&lt;/font&gt;&lt;/div&gt;&lt;font size=&quot;3&quot;&gt;Fish Watcher&amp;nbsp;&lt;/font&gt;" style="whiteSpace=wrap;html=1;shape=mxgraph.basic.cloud_rect;sketch=0;align=center;verticalAlign=top;spacingTop=-6;fontFamily=Helvetica;" vertex="1" parent="1">
          <mxGeometry x="460" y="-240" width="210" height="80" as="geometry" />
        </mxCell>
      </root>
    </mxGraphModel>
  </diagram>
</mxfile>
